<?xml version="1.0" encoding="UTF-8"?>
<svg width="194px" height="194px" viewBox="0 0 194 194" version="1.1" xmlns="http://www.w3.org/2000/svg" xmlns:xlink="http://www.w3.org/1999/xlink">
    <!-- Generator: Sketch 54.1 (76490) - https://sketchapp.com -->
    <title>call-icon</title>
    <desc>Created with Sketch.</desc>
    <g id="Icons" stroke="none" stroke-width="1" fill="none" fill-rule="evenodd">
        <g id="Artboard" transform="translate(-283.000000, -273.000000)">
            <g id="call-icon" transform="translate(284.000000, 274.000000)">
                <rect id="Rectangle" stroke="#0E79B2" fill="#0E79B2" x="-0.5" y="-0.5" width="193" height="193" rx="2"></rect>
                <g id="baseline-phone-24px" transform="translate(26.000000, 26.000000)">
                    <polygon id="Path" points="0 0 140 0 140 140 0 140"></polygon>
                    <path d="M38.6898213,62.9581197 C47.0702409,79.427972 60.572028,92.8715618 77.0418803,101.310179 L89.8452991,88.5067599 C91.4166278,86.9354312 93.7445221,86.411655 95.7814297,87.1100233 C102.299534,89.2633256 109.341414,90.4272727 116.557887,90.4272727 C119.758741,90.4272727 122.377622,93.0461538 122.377622,96.2470085 L122.377622,116.557887 C122.377622,119.758741 119.758741,122.377622 116.557887,122.377622 C61.9105672,122.377622 17.6223776,78.0894328 17.6223776,23.4421134 C17.6223776,20.2412587 20.2412587,17.6223776 23.4421134,17.6223776 L43.8111888,17.6223776 C47.0120435,17.6223776 49.6309246,20.2412587 49.6309246,23.4421134 C49.6309246,30.7167832 50.7948718,37.7004662 52.948174,44.2185703 C53.588345,46.2554779 53.1227661,48.5251748 51.4932401,50.1547009 L38.6898213,62.9581197 Z" id="Path" fill="#FFFFFF" fill-rule="nonzero"></path>
                </g>
            </g>
        </g>
    </g>
</svg>