<?xml version="1.0" encoding="UTF-8"?>
<svg width="194px" height="194px" viewBox="0 0 194 194" version="1.1" xmlns="http://www.w3.org/2000/svg" xmlns:xlink="http://www.w3.org/1999/xlink">
    <!-- Generator: Sketch 54.1 (76490) - https://sketchapp.com -->
    <title>practo-logo</title>
    <desc>Created with Sketch.</desc>
    <g id="Icons" stroke="none" stroke-width="1" fill="none" fill-rule="evenodd">
        <g id="Artboard" transform="translate(-61.000000, -51.000000)">
            <g id="practo-logo" transform="translate(62.000000, 52.000000)">
                <rect id="Rectangle" stroke="#253077" fill="#253077" x="-0.5" y="-0.5" width="193" height="193" rx="2"></rect>
                <g id="practo-text" transform="translate(14.400000, 77.760000)" fill-rule="nonzero">
                    <path d="M12.5538261,17.7937711 C12.5538261,14.3667601 9.7207826,11.5890775 6.22721739,11.5890775 C2.77278261,11.6428044 0,14.404369 0,17.7937711 C0,21.1831733 2.77278261,23.9455054 6.22799999,23.9984648 C9.72313043,23.9984648 12.5553913,21.2200146 12.5553913,17.7937711 M164.158435,17.7937711 C164.183478,15.5602656 162.982956,13.4864059 161.014695,12.3627454 C159.046435,11.2390849 156.614869,11.2390849 154.646609,12.3627454 C152.67913,13.4871734 151.478609,15.5618007 151.504435,17.7953062 C151.506,21.2223172 154.339043,24.0007674 157.833391,23.9999998 C161.327739,23.9999998 164.160782,21.2215497 164.16,17.7937711" id="Shape" fill="#2CB7DF"></path>
                    <path d="M96.8532493,23.7050806 C93.7710775,23.7050806 91.2739694,21.4287702 91.2739694,17.9997581 C91.2739694,14.5715323 93.7710775,12.2952218 96.8524651,12.2952218 C98.8366622,12.2952218 100.551855,13.2254032 101.581599,14.8569556 L106.739727,11.1425202 C104.572011,7.99893145 100.951832,5.93727823 96.8524651,5.93727823 C90.2159924,5.93727823 84.8351322,11.3328024 84.8351322,17.98875 C84.8351322,24.6439113 90.2152081,30.0386492 96.8524651,30.0386492 C100.791057,30.0386492 104.31085,28.2812903 106.998535,24.5802218 L101.788646,20.9632863 C100.693024,22.5877621 99.009201,23.7050806 96.8524651,23.7050806 L96.8532493,23.7050806 Z M69.8744429,23.7050806 C66.7922711,23.7050806 64.2943787,21.4287702 64.2943787,17.9997581 C64.2943787,14.5715323 66.7922711,12.2952218 69.8744429,12.2952218 C72.9566147,12.2952218 75.4545071,14.5872581 75.4545071,17.9989718 C75.4545071,21.4114718 72.9558304,23.7042944 69.8744429,23.7042944 L69.8744429,23.7050806 Z M75.5776371,8.59887097 C73.9777311,7.0766129 71.8421704,5.93885081 68.846268,5.93885081 C63.1415053,5.93885081 57.8555415,10.7588105 57.8555415,17.9895363 C57.8555415,25.2194758 63.0913122,30.0394355 68.846268,30.0394355 C71.6210069,30.0394355 73.7377452,28.9575 75.3384355,27.378629 L75.3384355,29.3600806 L81.7772727,29.3600806 L81.7772727,6.63157258 L75.5776371,6.63157258 L75.5776371,8.59965726 L75.5776371,8.59887097 Z M48.547069,9.27822581 L48.547069,6.63078629 L42.340375,6.63078629 L42.340375,29.3585081 L48.7745066,29.3585081 L48.7745066,18.5784677 C48.7745066,14.0510081 51.2825945,12.8228226 54.0659603,12.8228226 C54.7482731,12.8228226 55.4792106,12.8676411 56.254067,13.0508468 L56.254067,6.63 C55.7991918,6.49239919 55.1137418,6.40197581 54.4298605,6.40197581 C52.605654,6.40197581 49.9814945,7.00112903 48.5478533,9.27743952 L48.547069,9.27822581 Z M115.688221,0 L109.249383,0 L109.249383,22.1670968 C109.249383,26.6937702 112.006084,29.536996 117.462234,29.536996 C119.650341,29.536996 121.694926,29.2161895 123.054062,28.8529234 L123.054062,23.0760484 C121.79296,23.4393145 120.387552,23.7129435 118.64491,23.7129435 C116.847368,23.7129435 115.688221,23.2097177 115.688221,21.3359879 L115.688221,12.2960081 L123.162291,12.2960081 L123.162291,6.5977621 L115.688221,6.5977621 L115.688221,0.000786290323 L115.688221,0 Z M136.781099,23.7050806 C133.698927,23.7050806 131.20025,21.4287702 131.20025,17.9997581 C131.20025,14.5715323 133.698143,12.2952218 136.780314,12.2952218 C139.860918,12.2952218 142.359594,14.5872581 142.359594,17.9989718 C142.359594,21.4114718 139.860133,23.7042944 136.77953,23.7042944 L136.781099,23.7050806 Z M136.781099,5.93885081 C130.143057,5.93885081 124.762981,11.3328024 124.762981,17.9895363 C124.762981,24.6446976 130.143057,30.0394355 136.781883,30.0394355 C143.41914,30.0394355 148.8,24.6454839 148.8,17.9903226 C148.8,11.3351613 143.418356,5.94042339 136.781099,5.94042339 L136.781099,5.93885081 Z M27.2628298,23.7050806 C24.180658,23.7050806 21.6827656,21.4122581 21.6827656,17.9997581 C21.6827656,14.5872581 24.180658,12.2952218 27.2628298,12.2952218 C30.3450016,12.2952218 32.8421097,14.5699597 32.8421097,17.9989718 C32.8421097,21.4271976 30.3442173,23.7042944 27.2628298,23.7042944 L27.2628298,23.7050806 Z M28.2902204,5.93885081 C25.2943181,5.93885081 23.1595416,7.0766129 21.5588513,8.59887097 L21.5588513,6.63078629 L15.36,6.63078629 L15.36,37.44 L21.7988372,37.44 L21.7988372,27.3770565 C23.3987432,28.9575 25.5162658,30.0386492 28.2910047,30.0386492 C34.0459605,30.0386492 39.2832998,25.2186895 39.2832998,17.9895363 C39.2832998,10.7595968 33.9957674,5.9396371 28.2917889,5.9396371 L28.2902204,5.93885081 Z" id="Shape" fill="#FFFFFF"></path>
                </g>
            </g>
        </g>
    </g>
</svg>