<svg height='100px' width='100px' fill="#000000" xmlns="http://www.w3.org/2000/svg"
     xmlns:xlink="http://www.w3.org/1999/xlink" version="1.1" x="0px" y="0px" viewBox="0 0 96 96"
     enable-background="new 0 0 96 96" xml:space="preserve"><path d="M16.407,45.758c-1.987,1.276-3.229,3.494-3.229,5.881c0,3.263,2.237,6.025,5.34,6.773  c2.829,7.129,8.302,12.992,15.205,16.29c0.327,3.558,3.328,6.354,6.97,6.354c2.488,0,4.736-1.299,5.989-3.386  c0.048,0.001,0.097,0.002,0.145,0.002c7.773,0,15.119-2.904,20.783-8.196c0.479,0.106,0.95,0.159,1.424,0.159  c3.859,0,7-3.14,7-6.999c0-1.309-0.384-2.599-1.095-3.717c1.569-3.746,2.363-7.685,2.363-11.723c0-4.758-1.127-9.475-3.27-13.717  c1.271-1.297,2.001-3.048,2.001-4.895c0-3.859-3.14-7-7-7c-1.43,0-2.792,0.427-3.946,1.22c-5.25-3.932-11.687-6.084-18.261-6.084  c-3.947,0-7.797,0.76-11.466,2.261c-1.299-1.795-3.394-2.896-5.666-2.896c-3.859,0-6.999,3.14-6.999,6.999  c0,1.429,0.451,2.825,1.268,3.992C19.386,32.272,16.73,38.829,16.407,45.758z M26.991,26.011c-0.835-0.773-1.295-1.812-1.295-2.925  c0-2.205,1.794-3.999,3.999-3.999c1.588,0,3.026,0.944,3.663,2.404l0.612,1.404l1.391-0.641c3.645-1.68,7.502-2.532,11.466-2.532  c6.3,0,12.458,2.192,17.342,6.173l1.059,0.863l0.958-0.974c0.76-0.772,1.771-1.198,2.848-1.198c2.206,0,4,1.794,4,4  c0,1.315-0.651,2.547-1.741,3.296l-1.125,0.773l0.665,1.193c2.27,4.072,3.47,8.688,3.47,13.349c0,3.9-0.824,7.701-2.448,11.294  l-0.39,0.862l0.61,0.723c0.438,0.519,0.959,1.384,0.959,2.561c0,2.205-1.794,3.999-4,3.999c-0.425,0-0.862-0.082-1.335-0.251  l-0.889-0.317l-0.671,0.664c-5.18,5.122-12.039,7.942-19.313,7.942c-0.169,0-0.334-0.013-0.5-0.024  c-0.164-0.011-0.328-0.022-0.494-0.027l-1.045-0.034l-0.393,0.969c-0.616,1.519-2.069,2.5-3.701,2.5  c-2.205,0-3.999-1.794-3.997-3.97c0.012-0.085,0.022-0.17,0.028-0.258l0.062-1.043l-0.958-0.419  c-6.846-2.997-12.24-8.755-14.801-15.798l-0.321-0.883l-0.935-0.096c-2.048-0.21-3.592-1.909-3.592-3.951  c0-1.544,0.915-2.965,2.33-3.621l0.852-0.395l0.017-0.938c0.128-6.948,2.854-13.53,7.675-18.533l1.062-1.102L26.991,26.011z"></path>
    <path d="M54.935,35.512c3.042,0,5.516-2.475,5.516-5.517c0-3.041-2.475-5.515-5.516-5.515s-5.516,2.474-5.516,5.515  C49.419,33.037,51.893,35.512,54.935,35.512z M54.935,27.479c1.387,0,2.516,1.128,2.516,2.515c0,1.388-1.129,2.517-2.516,2.517  s-2.516-1.129-2.516-2.517C52.419,28.608,53.547,27.479,54.935,27.479z"></path>
    <path d="M87.012,44.224c-2.751,0-4.989,2.237-4.989,4.988s2.238,4.988,4.989,4.988c2.75,0,4.988-2.238,4.988-4.988  S89.763,44.224,87.012,44.224z M87.012,51.2c-1.097,0-1.989-0.892-1.989-1.988s0.893-1.988,1.989-1.988  c1.096,0,1.988,0.892,1.988,1.988S88.108,51.2,87.012,51.2z"></path>
    <path d="M57.381,16.633c2.669,0,4.841-2.171,4.841-4.839c0-2.669-2.171-4.841-4.841-4.841c-2.669,0-4.84,2.172-4.84,4.841  C52.541,14.462,54.712,16.633,57.381,16.633z M57.381,9.953c1.015,0,1.841,0.826,1.841,1.841c0,1.014-0.826,1.839-1.841,1.839  c-1.015,0-1.84-0.825-1.84-1.839C55.541,10.779,56.367,9.953,57.381,9.953z"></path>
    <path d="M32.042,79.366c-2.669,0-4.84,2.171-4.84,4.841s2.171,4.841,4.84,4.841c2.669,0,4.841-2.172,4.841-4.841  S34.711,79.366,32.042,79.366z M32.042,86.048c-1.015,0-1.84-0.826-1.84-1.841s0.826-1.841,1.84-1.841  c1.015,0,1.841,0.826,1.841,1.841S33.057,86.048,32.042,86.048z"></path>
    <path d="M13.759,30.819c2.669,0,4.841-2.171,4.841-4.839c0-2.669-2.171-4.841-4.841-4.841c-2.669,0-4.84,2.172-4.84,4.841  C8.918,28.648,11.09,30.819,13.759,30.819z M13.759,24.138c1.015,0,1.841,0.826,1.841,1.841c0,1.014-0.826,1.839-1.841,1.839  c-1.015,0-1.84-0.825-1.84-1.839C11.918,24.964,12.744,24.138,13.759,24.138z"></path>
    <path d="M65.798,55.788c3.626,0,6.576-2.95,6.576-6.576s-2.95-6.576-6.576-6.576s-6.576,2.95-6.576,6.576  S62.172,55.788,65.798,55.788z M65.798,45.636c1.972,0,3.576,1.604,3.576,3.576s-1.604,3.576-3.576,3.576s-3.576-1.604-3.576-3.576  S63.827,45.636,65.798,45.636z"></path>
    <path d="M41.337,49.415c1.133,1.23,2.676,1.945,4.347,2.014c0.088,0.003,0.175,0.005,0.263,0.005c1.575,0,3.069-0.583,4.233-1.656  c1.23-1.133,1.945-2.677,2.014-4.347c0.069-1.67-0.517-3.268-1.65-4.498l-2.206,2.033c0.59,0.64,0.895,1.472,0.859,2.341  c-0.036,0.87-0.409,1.674-1.049,2.264c-0.64,0.591-1.47,0.898-2.341,0.859c-0.87-0.036-1.674-0.408-2.263-1.048L41.337,49.415z"></path>
    <path d="M9.007,69.078c1.575,0,3.07-0.583,4.234-1.656c2.538-2.339,2.701-6.306,0.362-8.844l-2.206,2.032  c1.217,1.322,1.132,3.388-0.189,4.606c-0.64,0.59-1.466,0.898-2.341,0.859c-0.87-0.036-1.673-0.408-2.263-1.048l-2.207,2.032  c1.133,1.23,2.677,1.945,4.347,2.014C8.832,69.076,8.919,69.078,9.007,69.078z"></path>
    <path d="M35.631,57.506c-1.606-0.619-3.357-0.575-4.931,0.124c-1.573,0.698-2.781,1.967-3.399,3.574l2.8,1.078  c0.331-0.858,0.976-1.537,1.817-1.91c0.841-0.373,1.776-0.396,2.635-0.066c1.772,0.683,2.659,2.679,1.977,4.451l2.8,1.078  C40.606,62.52,38.947,58.784,35.631,57.506z"></path>
    <path d="M39.062,30.478c1.345,0.518,2.018,2.033,1.5,3.376l2.8,1.078c1.112-2.887-0.333-6.141-3.222-7.255  c-2.888-1.11-6.142,0.336-7.253,3.223l2.8,1.078C36.204,30.634,37.72,29.961,39.062,30.478z"></path>
    <path d="M74.874,81.405c1.112-2.887-0.333-6.142-3.222-7.255c-2.888-1.109-6.143,0.336-7.253,3.223l2.8,1.078  c0.518-1.345,2.034-2.019,3.376-1.5c1.345,0.518,2.018,2.033,1.5,3.377L74.874,81.405z"></path>
    <path d="M53.302,58.061c-3.046,0-5.525,2.479-5.525,5.525c0,3.045,2.479,5.523,5.525,5.523s5.524-2.478,5.524-5.523  C58.827,60.539,56.349,58.061,53.302,58.061z M53.302,66.109c-1.392,0-2.525-1.132-2.525-2.523c0-1.392,1.133-2.525,2.525-2.525  s2.524,1.133,2.524,2.525C55.827,64.977,54.694,66.109,53.302,66.109z"></path>
    <path d="M23.023,41.698c0,3.652,2.972,6.624,6.624,6.624s6.624-2.972,6.624-6.624s-2.972-6.624-6.624-6.624  S23.023,38.046,23.023,41.698z M29.647,38.074c1.998,0,3.624,1.626,3.624,3.624s-1.626,3.624-3.624,3.624s-3.624-1.626-3.624-3.624  S27.649,38.074,29.647,38.074z"></path></svg>
