<svg height='100px' width='100px' fill="#000000" xmlns="http://www.w3.org/2000/svg"
     xmlns:xlink="http://www.w3.org/1999/xlink" version="1.1" x="0px" y="0px" viewBox="0 0 100 100"
     style="enable-background:new 0 0 100 100;" xml:space="preserve"><g><path d="M88,69.5c-2-2-4.9-2.7-7.5-1.9c-0.5-3.2-2.4-9.5-8.6-18.5C71.1,48,70.5,47,70,46c0.9,0.3,1.8,0.4,2.7,0.4   c0.1,0,0.3,0,0.4,0c3.1-0.1,6.7-2.1,7.6-7.3c0.8-4.6,0.9-8.6,0.3-12.3h4c0.4,0,0.8-0.2,1.1-0.5s0.4-0.7,0.4-1.1   c0-0.2-1.7-16.7-21-16.7c-5.2,0-9.4,2-12.3,5.7l0,0c0,0,0,0.1-0.1,0.1c-0.5,0.6-0.9,1.3-1.3,2c-4.3,7.8-3.1,19.1-0.9,24.2H43   c-1.7,0-3.1,0.9-4,2.2c-2.8-1.7-7.4-2.9-12.5,0.6c-3.1,2.1-5,4.9-6.6,7.3c-2.3,3.4-3.8,5.7-7.8,5.4c-0.5,0-1,0.2-1.4,0.7   c-0.3,0.4-0.3,1-0.1,1.5c0.1,0.2,2.3,4.6,6.1,5.7c0.6,0.2,1.1,0.2,1.7,0.2c0.2,0,0.3,0,0.5,0c-0.5,1.4-0.9,2.7-1.2,3.6   c-2.7-0.9-5.8-0.3-7.8,1.8c-1.5,1.6-2.3,3.7-2.1,5.9c0.2,2.2,1.3,4.2,3.1,5.4c6.6,4.7,20.3,12.7,38,12.7c17.8,0,31.5-7.9,38-12.7   c1.8-1.3,2.9-3.3,3.1-5.4C90.3,73.3,89.6,71.1,88,69.5z M52,27.6h4.8c0.8,0,1.5-0.7,1.5-1.5s-0.7-1.5-1.5-1.5h-4.5   c0.4-2.4,1.1-4.8,2.2-6.8c0.1-0.1,0.2-0.2,0.2-0.4l3.4,2.8c0.3,0.2,0.6,0.3,1,0.3s0.9-0.2,1.2-0.5c0.5-0.6,0.4-1.6-0.2-2.1L56.6,15   c1.9-2,4.4-3.1,7.5-3.4v3.6c0,0.8,0.7,1.5,1.5,1.5s1.5-0.7,1.5-1.5v-3.6c12,0.6,15.3,8.7,16.2,12.3h-4.1c-0.5,0-0.9,0.2-1.2,0.6   c-0.3,0.4-0.4,0.8-0.3,1.3c1.2,4.9,0.6,9.7,0,12.9c-0.7,4.2-3.6,4.8-4.8,4.9c-2.5,0.1-4.7-1.4-5.3-3.6c0,0,0,0,0-0.1   c-1.3-5.9,1.2-9.3,1.3-9.5c0.5-0.7,0.4-1.6-0.3-2.1c-0.7-0.5-1.6-0.4-2.1,0.3c-0.3,0.3-6.6,8.7,2.9,22.3c6.9,9.9,8.1,16.3,8.3,18.3   c-1.7,1.2-3.9,2.5-6.5,3.9c-1.9-3-7.6-10.4-16.9-12.6l1.1-10.4c2.4-0.2,4.3-2.2,4.3-4.7c0-2.6-2.1-4.7-4.7-4.7h-0.8   c0-0.1-0.1-0.1-0.1-0.2C52.9,38.2,51.8,33,52,27.6z M49,62.8c10.5,0,17.2,8.2,19.4,11.5c-5.3,2.3-11.9,4.3-19.4,4.3   c-7.3,0-13.7-1.8-18.9-4C32,71.5,38.2,62.8,49,62.8z M46,50h6.5l-1.1,9.9c-0.8-0.1-1.5-0.1-2.3-0.1c-0.6,0-1.1,0-1.7,0.1L46,50z    M43.2,43.6h12c0.9,0,1.7,0.8,1.7,1.7S56.1,47,55.1,47h-12c-0.9,0-1.7-0.8-1.7-1.7S42.2,43.6,43.2,43.6z M42.9,50l1.5,10.3   c-9.9,2-15.3,10.2-17,13c-2.8-1.4-5.1-2.8-6.9-4c1-3.8,5.6-18.2,18.3-22.1C39.5,48.7,41.1,49.9,42.9,50z M17.7,61   c-1.1-0.3-2.1-1.2-2.9-2.1c3.8-0.7,5.8-3.7,7.7-6.6c1.5-2.3,3.1-4.7,5.7-6.5c3.4-2.3,6.3-1.9,8.2-1.1c-6,2.3-11.1,6.9-14.8,13.6   c-0.4,0.7-0.8,1.5-1.1,2.2C19.6,61.1,18.7,61.3,17.7,61z M85.3,78.4C79,83,66,90.6,49,90.6c-16.9,0-30-7.6-36.3-12.1   c-1.1-0.8-1.7-1.9-1.8-3.3c-0.1-1.3,0.4-2.6,1.3-3.5c0.9-0.9,2.1-1.3,3.2-1.3c0.9,0,1.8,0.3,2.6,0.8c5.4,3.9,16.6,10.4,31,10.4   c8.8,0,16.4-2.4,22.2-5.2h0.1l0,0c3.6-1.8,6.6-3.6,8.7-5.1c1.8-1.3,4.3-1,5.8,0.6c0.9,0.9,1.4,2.2,1.3,3.5   C87.1,76.5,86.4,77.7,85.3,78.4z"></path><path
        d="M73.5,30.2c0.1,0.1,0.3,0.2,0.5,0.3c0.2,0.1,0.4,0.1,0.6,0.1s0.4,0,0.6-0.1s0.3-0.2,0.5-0.3c0.1-0.1,0.2-0.3,0.3-0.5   c0.1-0.2,0.1-0.4,0.1-0.6c0-0.4-0.2-0.8-0.4-1.1c-0.1-0.1-0.1-0.1-0.2-0.2s-0.2-0.1-0.3-0.1c-0.1,0-0.2-0.1-0.3-0.1   c-0.5-0.1-1,0.1-1.4,0.4c-0.3,0.3-0.4,0.7-0.4,1.1c0,0.2,0,0.4,0.1,0.6C73.3,29.9,73.4,30,73.5,30.2z"></path></g></svg>
