<svg height='100px' width='100px' fill="#000000" xmlns="http://www.w3.org/2000/svg"
     xmlns:xlink="http://www.w3.org/1999/xlink" version="1.1" x="0px" y="0px" viewBox="0 0 98 98"
     enable-background="new 0 0 98 98" xml:space="preserve"><g><path d="M58.7627,96.9799c3.3652-0.0762,7.2544-0.2598,10.814-1.4751l-0.6465-1.8926c-3.29,1.123-6.9966,1.2954-10.2129,1.3687   c-13.2686,0.292-31.708-4.4775-38.7593-10.0571c-2.5796-1.8145-4.3901-4.9727-5.3813-9.3867   c-2.3184-10.3252,0.5195-21.2222,3.0229-30.8369l6.2925-24.1646l0.0259-0.1406c0.0171-0.1499,1.9614-15.0054,26.125-17.3579   c4.0845,1.4312,6.5835,3.6572,7.8438,6.9858l0.5225,7.0552c0.0107,0.1445-0.0303,0.2891-0.1157,0.4067l-2.4585,3.3848   c-0.7145,0.9883-1.668,0.2501-1.7681,0.2305l1.2988-10.0483l-3.0581-3.5679l-1.5186,1.3017l2.479,2.8921l-1.2214,9.4536   c-1.7033,1.5475-3.1295,1.0799-4.2488-0.9627l-0.8057-6.9435l-3.4746-2.9492l-1.2939,1.5244l2.873,2.4395l0.7089,6.108   c-0.62,1.7289-1.9293,1.4469-3.4788,0.4059l-1.0847-5.5369l-3.3809-2.8389l-1.2861,1.5313l2.8398,2.3848l0.9617,4.9099   c-0.9161,2.0196-2.5342,3.3156-4.9539,3.9407l-0.6626,0.1714l-0.0806,0.6792c-2.2192,18.7568,7.4148,30.0728,8.833,33.0298   c0.5961,1.2431,1.3395,2.136,2.7344,2.1343c1.5851,0,2.9145-1.4538,4.0376-2.1382c15.3237-9.3394,24.707-2.8809,28.7134-0.123   l1.1338-1.6475c-4.3262-2.978-14.4565-9.9521-30.8882,0.0625c-1.2781,0.7787-2.5246,2.1571-3.3096,1.7627   c-0.3628-0.1807-0.6812-1.1946-1.1318-1.8545c-6.6353-9.7046-9.3242-19.6333-8.2095-30.333c2.3599-0.7534,4.1133-2.127,5.23-4.0957   c0.915,0.5083,2.2993,1.0444,3.6133,0.6421c0.4614-0.1411,1.0181-0.4341,1.5083-1.0342c0.6157,0.6968,1.5024,1.4141,2.6431,1.6079   c1.1856,0.2029,2.371-0.1862,3.5308-1.146l0.1235,0.0718c1.4287,0.8291,3.2397,0.4482,4.2114-0.8892l2.4585-3.3848   c0.3628-0.4995,0.5376-1.1143,0.4917-1.73l-0.5327-7.1968l-0.0581-0.27c-1.4683-4.0112-4.519-6.7554-9.3267-8.3892l-0.2021-0.0688   l-0.2129,0.02c-25.333,2.376-27.9468,17.689-28.1309,19.0693l-6.2759,24.1016c-2.561,9.8345-5.4634,20.981-3.0386,31.7793   c1.103,4.9136,3.1831,8.4746,6.1367,10.5503c7.2046,5.7031,24.9907,10.4688,38.7139,10.4688   C57.9092,96.9946,58.3384,96.9897,58.7627,96.9799z"></path><path
        d="M22.2603,81.6523l0.2261,0.1689c1.3628,1.0791,3.7739,2.1968,7.1655,3.3228l0.6299-1.8984   c-3.125-1.0371-5.3911-2.0718-6.5542-2.9927l-0.3179-0.2368c-1.2847-0.9038-2.3423-2.9609-2.979-5.7935   c-0.1353-0.6016-0.2485-1.208-0.3428-1.8188l-1.9766,0.3047c0.1025,0.665,0.2266,1.3223,0.3682,1.9526   C19.0068,77.0083,20.0908,80.1269,22.2603,81.6523z"></path><path
        d="M17.728,66.7407c-0.0181,1.1704,0.0137,2.3149,0.0938,3.4023l1.9941-0.1465c-0.0752-1.0288-0.105-2.1138-0.0879-3.2256   L17.728,66.7407z"></path><rect
        x="61.2848" y="22.901" transform="matrix(0.8092 0.5875 -0.5875 0.8092 25.9244 -32.0327)" width="1.9997"
        height="1.9997"></rect><path
        d="M66.4106,17.1181c0-0.21-0.0078-0.4204-0.0234-0.6313l-0.0596-0.8052l-1.9941,0.1475l0.0596,0.8047   c0.0117,0.1616,0.0176,0.3232,0.0176,0.4844c0,0.1841-0.0078,0.3677-0.0229,0.5508l1.9932,0.166   C66.4009,17.5971,66.4106,17.3579,66.4106,17.1181z"></path><path
        d="M64.0195,19.3623c-0.1963,0.5459-0.4634,1.0635-0.7944,1.5381l1.6416,1.1436c0.4312-0.6191,0.7793-1.2939,1.0347-2.0049   L64.0195,19.3623z"></path><rect
        x="14.7153" y="22.4336" transform="matrix(0.9677 0.2519 -0.2519 0.9677 6.5935 -3.1801)" width="2.0001"
        height="3.4492"></rect><rect x="13.333" y="28.0379"
                                     transform="matrix(0.9677 0.2519 -0.2519 0.9677 7.8862 -2.6606)" width="2.0001"
                                     height="2.8563"></rect><path
        d="M11.7441,43.3779l2.6982-10.3633l-1.9355-0.5039L9.8086,42.874c-0.2539,0.9751-0.5137,1.9736-0.7729,2.9932l1.9385,0.4922   C11.2319,45.3442,11.4912,44.3496,11.7441,43.3779z"></path><path
        d="M86.9277,66.6762l-1.8057,0.8613c1.5635,3.2778,2.8638,7.0337,3.9751,11.4814l1.9404-0.4854   C89.8936,73.955,88.5488,70.0766,86.9277,66.6762z"></path><path
        d="M85.7437,64.3671c-0.6079-1.1035-1.2666-2.1816-1.9585-3.2041l-1.6563,1.1211c0.6577,0.9717,1.2842,1.9971,1.8628,3.0478   L85.7437,64.3671z"></path><path
        d="M66.1436,62.2299c-5.8594-1.9452-13.3739,0.071-18.2632,3.0884l-0.7134,0.4399l0.3086,0.7793   c0.1704,0.4302,4.2725,10.5693,12.791,13.3975c1.5649,0.5195,3.2715,0.7827,5.0723,0.7827c6.834,0,12.9346-3.7134,13.1909-3.8716   l0.7134-0.4399l-0.3086-0.7793C78.7642,75.1967,74.6621,65.0581,66.1436,62.2299z M52.5166,66.9355   c8.504,0,16.0389,2.5272,23.0625,8.2563c-0.4971,0.0225-1.0635,0.0376-1.6865,0.0376c-8.5688,0-16.094-2.5715-23.062-8.2568   C51.3276,66.9502,51.8936,66.9355,52.5166,66.9355z M74.7081,72.0006c-6.6117-4.7122-13.4827-6.8894-21.3214-7.0526   C62.7406,61.5186,69.4106,63.9221,74.7081,72.0006z M51.7025,70.1646c6.5309,4.6546,13.3804,6.8853,21.3127,7.0522   C63.6793,80.6379,57.0103,78.2586,51.7025,70.1646z"></path><rect
        x="63.8447" y="34.4712" width="2" height="2"></rect><rect x="55.8447" y="34.4712" width="2" height="2"></rect><rect
        x="51.8447" y="34.4712" width="2" height="2"></rect><rect x="59.8447" y="34.4712" width="2" height="2"></rect><rect
        x="91.5649" y="46.8002" width="2" height="2"></rect><rect x="87.5649" y="46.8002" width="2" height="2"></rect><rect
        x="83.5649" y="46.8002" width="2" height="2"></rect><rect x="79.5649" y="46.8002" width="2" height="2"></rect><rect
        x="91.5649" y="10.0381" width="2" height="2"></rect><rect x="83.5649" y="10.0381" width="2" height="2"></rect><rect
        x="79.5649" y="10.0381" width="2" height="2"></rect><rect x="87.5649" y="10.0381" width="2" height="2"></rect><rect
        x="4.4351" y="90.0488" width="2" height="2"></rect><rect x="12.4351" y="90.0488" width="2" height="2"></rect><rect
        x="8.4351" y="90.0488" width="2" height="2"></rect><rect x="10.1699" y="6.5" width="2" height="2"></rect><rect
        x="6.1699" y="6.5" width="2" height="2"></rect><rect x="14.1699" y="6.5" width="2" height="2"></rect><polygon
        points="92.2344,32.1938 89.5508,32.1938 89.5508,29.5102 87.5508,29.5102 87.5508,32.1938 84.8677,32.1938    84.8677,34.1938 87.5508,34.1938 87.5508,36.8769 89.5508,36.8769 89.5508,34.1938 92.2344,34.1938  "></polygon><polygon
        points="32.9595,58.6035 30.2764,58.6035 30.2764,55.9199 28.2764,55.9199 28.2764,58.6035 25.5928,58.6035    25.5928,60.6035 28.2764,60.6035 28.2764,63.2866 30.2764,63.2866 30.2764,60.6035 32.9595,60.6035  "></polygon></g></svg>
