<svg height='100px' width='100px' fill="#000000" xmlns="http://www.w3.org/2000/svg"
     xmlns:xlink="http://www.w3.org/1999/xlink" xml:space="preserve" version="1.1"
     style="shape-rendering:geometricPrecision;text-rendering:geometricPrecision;image-rendering:optimizeQuality;"
     viewBox="0 0 60000 60000" x="0px" y="0px" fill-rule="evenodd" clip-rule="evenodd"><defs><style type="text/css">

    .fil0 {fill:#000000;fill-rule:nonzero}

  </style></defs>
    <g><path class="fil0" d="M37752 59212c0,221 -179,400 -400,400 -221,0 -400,-179 -400,-400l0 -16129c0,-223 -1,-284 -2,-343 -13,-878 -23,-1572 675,-2326 585,-632 1245,-1182 1906,-1733 1694,-1412 3389,-2824 3455,-5477l0 -9 0 0c45,-888 -156,-1626 -514,-2175 -214,-329 -486,-590 -795,-773 -305,-181 -646,-285 -1003,-303 -504,-25 -1044,119 -1566,459 -753,491 -1368,879 -2053,1037 -710,164 -1448,74 -2398,-414 -534,-274 -899,-630 -1268,-988 -642,-624 -1293,-1257 -2955,-1246l-3 0c-1663,-10 -2314,623 -2955,1246 -369,358 -734,714 -1268,988 -950,488 -1688,578 -2398,414 -685,-158 -1299,-546 -2053,-1037 -522,-340 -1062,-485 -1566,-459 -357,18 -698,122 -1003,303 -309,183 -580,443 -795,773 -357,548 -558,1287 -514,2175 0,7 0,15 0,22 71,2645 1763,4055 3454,5465 660,550 1321,1101 1906,1733 698,754 688,1448 675,2326 -1,59 -2,120 -2,343l0 16129c0,221 -179,400 -400,400 -221,0 -400,-179 -400,-400l0 -16129c0,-16 2,-187 5,-352 10,-702 18,-1257 -463,-1776 -547,-591 -1189,-1126 -1831,-1661 -1829,-1524 -3658,-3049 -3741,-6050l-1 -12c-53,-1064 198,-1965 642,-2647 284,-436 645,-782 1057,-1026 415,-246 882,-387 1372,-412 665,-33 1369,151 2038,587 686,447 1243,800 1796,928 529,122 1097,45 1857,-345 423,-217 747,-533 1074,-850 757,-736 1526,-1483 3513,-1471 1987,-12 2756,735 3513,1471 327,318 651,633 1074,850 760,390 1329,467 1857,345 554,-128 1110,-481 1796,-928 670,-436 1373,-621 2038,-587 490,25 957,166 1372,412 412,244 774,590 1057,1026 444,682 695,1582 642,2647l0 0c-79,3009 -1910,4535 -3742,6061 -642,535 -1284,1070 -1831,1661 -481,519 -473,1074 -463,1776 2,166 5,336 5,352l0 16129zm-11355 -57066c-24,-135 66,-265 201,-289 135,-24 265,66 289,201 119,667 208,1327 265,1990 57,663 85,1343 83,2049 0,138 -112,249 -249,249 -138,0 -249,-112 -249,-249 2,-678 -25,-1344 -83,-2006 -57,-662 -143,-1307 -257,-1945zm8330 49986c2,-138 114,-248 252,-246 138,2 248,114 246,252l-53 3863c-2,138 -114,248 -252,246 -138,-2 -248,-114 -246,-252l53 -3863zm245 -51500c22,-219 218,-379 438,-356 219,22 379,218 356,438 -12,119 -25,245 -39,376 -348,3370 -1082,10461 1164,12597 455,433 961,843 1466,1253 2462,1996 4898,3970 2304,8465 -485,840 -1149,1434 -1953,1798 -822,372 -1784,500 -2844,401 -1002,-93 -1755,-438 -2477,-769 -406,-186 -803,-368 -1219,-486 -369,-104 -1314,-146 -2261,-130 -917,16 -1814,85 -2160,204 -334,114 -655,261 -983,411 -723,331 -1475,675 -2477,769 -1060,99 -2022,-29 -2844,-401 -804,-364 -1468,-958 -1953,-1798 -2595,-4495 -159,-6469 2304,-8465 505,-409 1011,-820 1466,-1253 2245,-2136 1512,-9227 1164,-12597 -14,-131 -27,-257 -39,-376 -22,-219 137,-415 356,-438 219,-22 415,137 438,356 12,119 25,245 39,376 361,3495 1122,10850 -1408,13256 -474,451 -994,873 -1513,1293 -2197,1781 -4371,3543 -2116,7450 396,686 937,1171 1590,1467 695,315 1522,421 2444,336 865,-81 1555,-396 2218,-700 352,-161 697,-319 1058,-443 422,-144 1413,-227 2404,-244 1014,-18 2051,33 2489,158 469,133 897,329 1335,529 663,303 1353,619 2218,700 922,86 1749,-21 2444,-336 653,-296 1194,-780 1590,-1467 2255,-3907 81,-5669 -2116,-7450 -519,-421 -1039,-842 -1513,-1293 -2529,-2407 -1769,-9761 -1408,-13256 14,-131 27,-257 39,-376zm12330 24446l-2951 2102c-179,128 -429,86 -556,-94 -17,-24 -31,-48 -42,-74l-1 0 -471 -1096c-60,-139 -34,-293 53,-404l3781 -5219c7,-10 15,-19 22,-28 192,-255 411,-435 636,-542 254,-121 516,-152 763,-97 248,54 474,193 655,410 167,200 294,466 359,791 4,18 6,37 7,55l491 5891c13,100 46,175 91,225 31,35 69,58 109,68 37,9 76,7 114,-8 52,-20 103,-63 148,-130 10,-15 20,-29 32,-42l3685 -4338c142,-168 394,-189 563,-47 19,16 36,33 51,52l0 0 765 936c116,142 118,340 18,483l-4222 6887c-244,485 -613,832 -1017,1023 -304,144 -629,201 -941,165 -322,-37 -627,-172 -878,-410 -280,-266 -488,-656 -567,-1178 -2,-14 -3,-27 -4,-40l-691 -5340zm-3011 1165l3089 -2200 0 0c52,-37 113,-62 181,-71 218,-28 418,127 445,345l776 5999c2,8 3,15 4,23 51,333 170,569 327,718 119,113 265,177 419,195 164,19 341,-13 509,-93 254,-120 490,-346 649,-669 6,-11 12,-23 18,-34l4097 -6682 -283 -346 -3365 3961c-139,201 -317,337 -508,411 -196,76 -403,88 -598,39 -192,-48 -370,-154 -512,-315 -146,-165 -251,-386 -286,-654 -2,-11 -3,-22 -4,-33l-489 -5876c-39,-182 -103,-322 -183,-417 -63,-75 -135,-122 -211,-139 -77,-17 -164,-5 -254,38 -113,54 -228,151 -337,295 -5,8 -10,15 -15,22l-3656 5048 186 433zm-31674 -2200l3089 2200 186 -433 -3656 -5048c-5,-7 -10,-15 -15,-22 -109,-144 -224,-241 -337,-295 -90,-43 -177,-55 -254,-38 -76,17 -149,63 -211,139 -80,96 -144,235 -183,417l-489 5876c-1,11 -2,22 -4,33 -35,268 -140,489 -286,654 -142,161 -321,267 -512,315 -195,49 -402,37 -598,-39 -191,-75 -369,-210 -508,-411l-3365 -3961 -283 346 4097 6682c7,11 13,22 18,34 160,323 395,549 649,669 169,80 345,112 509,93 154,-18 300,-82 419,-195 157,-149 276,-385 327,-718 1,-8 3,-16 4,-23l776 -5999c28,-218 227,-373 445,-345 68,9 129,34 181,71l0 0zm3030 3137l-2951 -2102 -691 5340c-1,13 -2,27 -4,40 -79,522 -287,912 -567,1178 -252,239 -557,373 -878,410 -311,36 -637,-21 -941,-165 -404,-191 -773,-537 -1017,-1023l-4222 -6887c-101,-143 -99,-341 18,-483l765 -936 0 0c15,-19 32,-36 51,-52 168,-142 420,-121 563,47l3685 4338c11,13 22,27 32,42 45,67 96,110 148,130 38,15 77,17 114,8 40,-10 78,-33 109,-68 44,-50 77,-125 91,-225l491 -5891c1,-18 3,-37 7,-55 65,-325 192,-590 359,-791 181,-217 407,-356 655,-410 247,-54 509,-23 763,97 225,107 444,287 636,542 8,9 15,18 22,28l3781 5219c87,111 112,265 53,404l-471 1096 -1 0c-11,25 -25,50 -42,74 -128,179 -377,221 -556,94zm5535 32087c16,220 -149,412 -369,428 -220,16 -412,-149 -428,-369l-907 -11771c-71,-920 -440,-2493 -1053,-3781 -306,-642 -667,-1203 -1074,-1556 -352,-305 -741,-448 -1158,-325 -218,64 -451,198 -701,414 -609,527 -687,1034 -509,1490 206,527 725,1034 1224,1452 607,508 946,824 1186,1235 239,409 351,866 505,1656 454,2343 863,6609 1116,9242 78,816 141,1470 190,1898 25,219 -132,417 -352,442 -219,25 -417,-132 -442,-352 -40,-351 -107,-1046 -190,-1914 -250,-2613 -656,-6846 -1106,-9167 -135,-697 -230,-1093 -411,-1403 -180,-308 -474,-578 -1008,-1025 -579,-485 -1187,-1088 -1456,-1777 -296,-760 -196,-1578 731,-2381 340,-294 673,-481 998,-577 713,-211 1350,6 1904,487 500,433 926,1085 1274,1815 656,1378 1052,3071 1128,4066l907 11771z"></path></g></svg>
