<svg height='100px' width='100px' fill="#000000" xmlns="http://www.w3.org/2000/svg" data-name="Layer 1"
     viewBox="0 0 64 64" x="0px" y="0px">
    <title>bone-density-check-osteoporosis-aging</title>
    <path d="M55,19A13,13,0,1,0,42,32,13.015,13.015,0,0,0,55,19ZM42.2,29.116V28.8a2.365,2.365,0,0,1,1.055-1.971A4.36,4.36,0,0,0,45.2,23.215,3.962,3.962,0,0,1,48,27a3.912,3.912,0,0,1-.272,1.373A10.914,10.914,0,0,1,42.4,29.98,2.252,2.252,0,0,1,42.2,29.116Zm7.778-2.565a5.964,5.964,0,0,0-4.749-5.4,2.351,2.351,0,0,1,1.659-1.911l3.552-1.064A2.357,2.357,0,0,1,53,19.024,10.955,10.955,0,0,1,49.978,26.551Zm-.1-15.215A1.973,1.973,0,0,1,50,12a2,2,0,1,1-2-2,1.813,1.813,0,0,1,.37.049A11.079,11.079,0,0,1,49.875,11.336ZM35.584,10.083a3.988,3.988,0,0,1,2.885,1.971,3.966,3.966,0,0,0-2.951,5.894,3.787,3.787,0,0,1-4.053-2.1A11.029,11.029,0,0,1,35.584,10.083Zm1.818,7.1A1.956,1.956,0,0,1,37,16a2,2,0,0,1,2-2A3.981,3.981,0,0,1,37.4,17.178Zm-6.376,1.316a5.989,5.989,0,1,0,6.9-9.7,10.846,10.846,0,0,1,7.846-.111,4,4,0,1,0,5.847,5,10.949,10.949,0,0,1,1.048,2.684,4.336,4.336,0,0,0-2.8-.1l-3.552,1.064A4.345,4.345,0,0,0,43.2,21.506V23.2a2.364,2.364,0,0,1-1.054,1.971A4.361,4.361,0,0,0,40.2,28.8v.313a4.2,4.2,0,0,0,.071.734,10.887,10.887,0,0,1-2.043-.53,4,4,0,1,0-5.847-5A10.928,10.928,0,0,1,31,19C31,18.829,31.018,18.663,31.026,18.494Zm3.1,8.17A1.973,1.973,0,0,1,34,26a2,2,0,1,1,2,2,1.813,1.813,0,0,1-.37-.049A11.079,11.079,0,0,1,34.125,26.664Z"></path>
    <path d="M42,62a5.006,5.006,0,0,0,5-5V35.247A16.993,16.993,0,1,0,31.936,5.331a6.977,6.977,0,0,0-12.152.452A7.995,7.995,0,1,0,12,17.938V46.063a8,8,0,1,0,7.784,12.154A7,7,0,1,0,27,48.071V26.983a17.074,17.074,0,0,0,10,8.264V57A5.006,5.006,0,0,0,42,62Zm0-2a3,3,0,0,1-3-3V41h6V57A3,3,0,0,1,42,60Zm3-21H39V35.719a16.155,16.155,0,0,0,6,0ZM26,50a5,5,0,1,1-5,5,1.069,1.069,0,0,0-1.079-1,1,1,0,0,0-.99.857A6,6,0,1,1,13,48a1,1,0,0,0,1-1V17a1,1,0,0,0-1-1,6,6,0,1,1,5.931-6.857A1.084,1.084,0,0,0,20,10a1,1,0,0,0,1-1,4.991,4.991,0,0,1,9.384-2.378,17.006,17.006,0,0,0-4.645,7.431A.985.985,0,0,0,25,15V49A1,1,0,0,0,26,50Zm1-31A15,15,0,1,1,42,34,15.017,15.017,0,0,1,27,19Z"></path>
</svg>
