<svg height='100px' width='100px' fill="#000000" xmlns="http://www.w3.org/2000/svg" data-name="Layer 1"
     viewBox="0 0 100 100" x="0px" y="0px">
    <title>rheumatology</title>
    <path d="M60.31,74.18A9.35,9.35,0,0,1,53.37,71a7,7,0,0,1-1.64-5.68,23.16,23.16,0,0,1,.84-3,17.29,17.29,0,0,0,1-3.76,17,17,0,0,0-1-3.76,23.16,23.16,0,0,1-.84-3,6.94,6.94,0,0,1,1.64-5.68,9.32,9.32,0,0,1,6.94-3.19,8.58,8.58,0,0,1,8.18,5.94A1.68,1.68,0,0,0,70.1,50h9.8a1.58,1.58,0,1,1,0,3.15H70.1a4.8,4.8,0,0,1-4.61-3.26,5.43,5.43,0,0,0-5.18-3.76,6.07,6.07,0,0,0-4.53,2.07,3.83,3.83,0,0,0-.94,3.11,23.58,23.58,0,0,0,.73,2.56,17.51,17.51,0,0,1,1.1,4.73,17.68,17.68,0,0,1-1.1,4.73,23,23,0,0,0-.73,2.56A3.84,3.84,0,0,0,55.78,69,6.07,6.07,0,0,0,60.31,71a5.43,5.43,0,0,0,5.18-3.76A4.8,4.8,0,0,1,70.1,64h9.8a1.58,1.58,0,1,1,0,3.15H70.1a1.68,1.68,0,0,0-1.61,1.09A8.58,8.58,0,0,1,60.31,74.18ZM46.63,71a7,7,0,0,0,1.64-5.68,23.16,23.16,0,0,0-.84-3,17.29,17.29,0,0,1-1-3.76,17,17,0,0,1,1-3.76,23.16,23.16,0,0,0,.84-3,6.94,6.94,0,0,0-1.64-5.68,9.32,9.32,0,0,0-6.94-3.19,8.58,8.58,0,0,0-8.18,5.94A1.68,1.68,0,0,1,29.9,50H20.1a1.58,1.58,0,1,0,0,3.15h9.8a4.8,4.8,0,0,0,4.61-3.26,5.43,5.43,0,0,1,5.18-3.76,6.07,6.07,0,0,1,4.53,2.07,3.83,3.83,0,0,1,.94,3.11,23.58,23.58,0,0,1-.73,2.56,17.51,17.51,0,0,0-1.1,4.73,17.68,17.68,0,0,0,1.1,4.73,23,23,0,0,1,.73,2.56A3.84,3.84,0,0,1,44.22,69,6.07,6.07,0,0,1,39.69,71a5.43,5.43,0,0,1-5.18-3.76A4.8,4.8,0,0,0,29.9,64H20.1a1.58,1.58,0,1,0,0,3.15h9.8a1.68,1.68,0,0,1,1.61,1.09,8.58,8.58,0,0,0,8.18,5.94A9.35,9.35,0,0,0,46.63,71Zm4.95-31.36V27.4a1.58,1.58,0,0,0-3.16,0V39.63a1.58,1.58,0,0,0,3.16,0Zm3.59,2.16,3.51-11a1.57,1.57,0,0,0-1-2,1.6,1.6,0,0,0-2,1l-3.5,11a1.57,1.57,0,0,0,1,2,1.61,1.61,0,0,0,.48.08A1.57,1.57,0,0,0,55.17,41.79Zm-8.36,1a1.57,1.57,0,0,0,1-2l-3.5-11a1.6,1.6,0,0,0-2-1,1.57,1.57,0,0,0-1,2l3.51,11a1.57,1.57,0,0,0,1.5,1.1A1.61,1.61,0,0,0,46.81,42.81Z"></path>
</svg>
