<svg height='100px' width='100px' fill="#000000" xmlns="http://www.w3.org/2000/svg" viewBox="0 0 64 64" x="0px" y="0px">
    <g>
        <path d="M32,9A17,17,0,1,0,49,26,17.019,17.019,0,0,0,32,9Zm5,2.875V17.09a1,1,0,0,0,.834.986,4.962,4.962,0,0,1,3.685,7.029L39,22.586V20H37v2H35v2h2.586l2.707,2.707.561-.561a4.967,4.967,0,0,1-8.021-.385,1.039,1.039,0,0,0-1.666,0,5,5,0,1,1-5-7.685A1,1,0,0,0,27,17.09V11.875a14.723,14.723,0,0,1,10,0ZM22.27,37.4a4.994,4.994,0,0,1,8.9-1.156,1.039,1.039,0,0,0,1.666,0,5,5,0,0,1,8.883,1.094l.133-.047A14.925,14.925,0,0,1,22.27,37.4Zm20.984-1.511A6.984,6.984,0,0,0,32,34.1a7,7,0,0,0-11.263,1.771A14.956,14.956,0,0,1,25,12.744V16.3a7,7,0,1,0,7,11.6,7,7,0,1,0,7-11.6V12.744a14.956,14.956,0,0,1,4.254,23.14Z"></path>
        <path d="M39,6.225V3a1,1,0,0,0-1-1H26a1,1,0,0,0-1,1V6.225A20.951,20.951,0,0,0,14.7,37.883L2.293,50.293A1,1,0,0,0,2,51v8a1,1,0,0,0,.617.924A.987.987,0,0,0,3,60a1,1,0,0,0,.707-.293L20.117,43.3A20.968,20.968,0,0,0,25,45.775V61a1,1,0,0,0,1,1H38a1,1,0,0,0,1-1V45.775a20.966,20.966,0,0,0,0-39.55ZM27,4H37V5.627a20.25,20.25,0,0,0-10,0ZM4,56.586V51.414L15.926,39.488a21.2,21.2,0,0,0,2.586,2.586ZM37,60H27V46.373a20.25,20.25,0,0,0,10,0ZM32,45a18.879,18.879,0,0,1-11.488-3.9l-3.61-3.61A18.976,18.976,0,1,1,32,45Z"></path>
    </g>
</svg>
