<svg height='100px' width='100px' fill="#000000" xmlns="http://www.w3.org/2000/svg" data-name="Layer 1"
     viewBox="0 0 128 128" x="0px" y="0px">
    <title>human Anatomy 02 final</title>
    <path d="M83.60535,113.99957a2.0001,2.0001,0,0,0-2-2H78.23761l-.27649-3.33087a3.99991,3.99991,0,0,0-3.98621-3.66913H54.9751a4,4,0,0,0-3.98627,3.66913l-.27649,3.33087H46.39465a2,2,0,1,0,0,4h3.98572l-.22156,2.66913a4,4,0,0,0,3.98627,4.33087H74.80493a4,4,0,0,0,3.98621-4.33087l-.22156-2.66913h3.03577A2.0001,2.0001,0,0,0,83.60535,113.99957Zm-29.46027,5,.83-10H73.97491l.83,10Z"></path>
    <path d="M46.005,93.99957a2.0001,2.0001,0,0,0,2,2h4.038l-.22388,2.66516a4.00005,4.00005,0,0,0,3.986,4.33484H73.145a4,4,0,0,0,3.9859-4.33484L76.907,95.99957h3.03821a2,2,0,0,0,0-4H76.571l-.28015-3.33484a4,4,0,0,0-3.986-3.66516H56.64508a4,4,0,0,0-3.986,3.66516L52.379,91.99957H48.005A2.0001,2.0001,0,0,0,46.005,93.99957Zm10.64008-5H72.30493l.84,10H55.80505Z"></path>
    <path d="M47.66516,73.99957a2.0001,2.0001,0,0,0,2,2h4.04517l-.22156,2.66913a4,4,0,0,0,3.98633,4.33087H71.47491a4,4,0,0,0,3.98627-4.33087l-.2215-2.66913H79.285a2,2,0,0,0,0-4H74.90765l-.27643-3.33087A3.99992,3.99992,0,0,0,70.645,64.99957H58.30505a4,4,0,0,0-3.98627,3.66913l-.27649,3.33087H49.66516A2.0001,2.0001,0,0,0,47.66516,73.99957Zm10.63989-5H70.645l.83,10H57.4751Z"></path>
    <path d="M49.32532,53.99957a2.0001,2.0001,0,0,0,2,2h4.055l-.22156,2.66913a4,4,0,0,0,3.98633,4.33087H69.80493A3.99991,3.99991,0,0,0,73.7912,58.6687l-.22156-2.66913h3.0553a2,2,0,0,0,0-4H73.23767l-.27649-3.33087a4,4,0,0,0-3.98627-3.66913H59.975a4,4,0,0,0-3.98627,3.66913l-.27649,3.33087h-4.387A2.0001,2.0001,0,0,0,49.32532,53.99957Zm10.64972-5h8.99988l.83,10H59.14508Z"></path>
    <path d="M76.30463,13.99957a2.0001,2.0001,0,0,0-2-2H70.90771L70.63123,8.6687A4,4,0,0,0,66.645,4.99957h-4.34A3.99991,3.99991,0,0,0,58.31879,8.6687l-.27649,3.33087H53.64459a2,2,0,0,0,0,4h4.06573l-.22156,2.66913A4,4,0,0,0,61.475,22.99957h6a4,4,0,0,0,3.98621-4.33087l-.22156-2.66913h3.06494A2.0001,2.0001,0,0,0,76.30463,13.99957Zm-14.82959,5,.83-10h4.34l.83,10Z"></path>
    <path d="M50.98547,33.99957a2,2,0,0,0,1.99994,2H57.043l-.22388,2.66516a4.00005,4.00005,0,0,0,3.9859,4.33484h7.34a4,4,0,0,0,3.9859-4.33484L71.907,35.99957h3.05774a2,2,0,0,0,0-4H71.571l-.28015-3.33484a4,4,0,0,0-3.9859-3.66516h-5.66a4,4,0,0,0-3.9859,3.66516L57.379,31.99957H52.98541A2,2,0,0,0,50.98547,33.99957Zm10.65955-5h5.66l.84,10h-7.34Z"></path>
    <path d="M.21826,31.09137a2.00026,2.00026,0,1,0,3.56439,1.81641,18.02394,18.02394,0,0,1,12.95209-8.832,2.00464,2.00464,0,0,0,1.62592-1.31689c.205-.57574,5.13361-14.00208,16.589-11.90466,1.30969.58,9.05957,4.50122,5.8894,14.80652a1.99948,1.99948,0,1,0,3.8222,1.17578c2.90912-9.45416-1.46356-15.42084-5.61908-18.27423a27.70064,27.70064,0,0,1,13.162-4.57294A2.00019,2.00019,0,0,0,51.796.00983c-9.48132.97168-14.98328,5.02783-16.95007,6.772C24.14777,5.33307,17.50427,14.3443,15.02283,20.29987A22.02156,22.02156,0,0,0,.21826,31.09137Z"></path>
    <path d="M126.00153,34.00006a2.00129,2.00129,0,0,0,1.78021-2.90869,22.02156,22.02156,0,0,0-14.80457-10.7915C110.49573,14.34381,103.8327,5.336,93.15411,6.7818,91.18732,5.03766,85.68536.98151,76.204.00983a2.00019,2.00019,0,0,0-.4082,3.97949,27.42349,27.42349,0,0,1,13.7074,4.98486c-3.96985,2.99536-7.82556,8.84-5.04926,17.8623a1.99948,1.99948,0,1,0,3.8222-1.17578c-3.3808-10.98926,5.65717-14.71924,6.05951-14.87891a1.97609,1.97609,0,0,0,.22864-.11664c10.39191-.72461,14.88013,11.54382,15.074,12.09076a1.99982,1.99982,0,0,0,1.62689,1.31982,17.86363,17.86363,0,0,1,12.95209,8.832A2.00051,2.00051,0,0,0,126.00153,34.00006Z"></path>
    <path d="M29.91431,94.52789c.03516-.24072.81055-6.05811-3.20117-20.27295-2.01849-7.166-3.40326-11.09863-4.51654-14.25879A65.39946,65.39946,0,0,1,19.66241,51.564a1.99992,1.99992,0,0,0-3.582-.72314,50.06176,50.06176,0,0,1-11.20111,10.896,2.00041,2.00041,0,0,0,2.24219,3.31348,51.68411,51.68411,0,0,0,9.64838-8.69482c.50293,1.69873,1.04,3.22607,1.65424,4.96924,1.09375,3.106,2.45508,6.97217,4.43945,14.01611,3.36517,11.92334,3.17676,17.46533,3.10645,18.4502-3.1084,8.60205-1.30957,12.77734-.06934,14.43359a84.34064,84.34064,0,0,1-3.02734,17.19775,2.00016,2.00016,0,1,0,3.83,1.15479,85.76367,85.76367,0,0,0,3.23047-19.00439,1.54634,1.54634,0,0,0-.71387-1.604c-.02539-.02441-2.54395-2.52881.5918-11.03711A2.04077,2.04077,0,0,0,29.91431,94.52789Z"></path>
    <path d="M109.57587,61.32477c.61426-1.74316,1.15131-3.27051,1.65424-4.96924a51.68411,51.68411,0,0,0,9.64838,8.69482,2.00041,2.00041,0,0,0,2.24219-3.31348,50.29551,50.29551,0,0,1-11.20209-10.89746,2.00049,2.00049,0,0,0-3.581.72461,65.39946,65.39946,0,0,1-2.53418,8.43213c-1.11328,3.16016-2.498,7.09277-4.51654,14.25781-4.01172,14.21582-3.23633,20.0332-3.20117,20.27393a2.04077,2.04077,0,0,0,.10254.40381c3.1123,8.4458.65332,10.97559.667,10.97559a1.69044,1.69044,0,0,0-.78906,1.66553,85.76367,85.76367,0,0,0,3.23047,19.00439,2.00023,2.00023,0,0,0,3.83-1.15527,84.04643,84.04643,0,0,1-3.02734-17.19727c1.24023-1.65625,3.03809-5.83154-.06836-14.43115-.07324-1.022-.249-6.56641,3.10547-18.4541C107.12079,68.29694,108.48212,64.43073,109.57587,61.32477Z"></path>
</svg>
